<?xml version="1.0" encoding="utf-8"?>
<!-- Generator: Adobe Illustrator 21.1.0, SVG Export Plug-In . SVG Version: 6.00 Build 0)  -->
<svg version="1.1" id="Layer_1" xmlns="http://www.w3.org/2000/svg" xmlns:xlink="http://www.w3.org/1999/xlink" x="0px" y="0px"
	 viewBox="0 0 400 344.9" style="enable-background:new 0 0 400 344.9;" xml:space="preserve">
<style type="text/css">
	.st0{fill:#B1CCCB;}
</style>
<path class="st0" d="M333.7,150.7C320,155,306,160,296,170c-2.8,0.2-5.6,0.4-8.4,0.5c-7.2,1.1-15.8-0.3-23,2.3
	c-2.4,0.9-4.7,2.2-6.7,4.2c-15,2-31,0-46,2c-1,3-1,6-3,8c-15-12-33-19-50.8-24.5c-2.1-0.7-4.2-1.5-6.2-2.5c-2-2-4-3.8-6.1-5.2
	C143,153,139,151,136,149c-6-2.2-12.6-2.8-18.8-3.4c-2.1-0.2-4.2-0.4-6.2-0.6c-5,0-10,2-15,1c-13-2-25-7-38-8c-18-2-35,3-51.8,1
	c-2.5-0.5-4.6-1.1-6.2-1.6v207.1h400V107.1c-5.8,2.1-12.2,5.4-18.8,9.8c-2.2,1.5-4.4,3.1-6.7,4.8c-2.3,1.2-4.4,2.5-6.6,3.9
	c-2.1,1.4-4.2,2.9-6.2,4.4c-7.7,6-15.7,11-23.1,17.7C337,148.7,335.4,149.7,333.7,150.7z"/>
</svg>
