<?xml version="1.0" encoding="utf-8"?>
<!-- Generator: Adobe Illustrator 21.1.0, SVG Export Plug-In . SVG Version: 6.00 Build 0)  -->
<svg version="1.1" id="Layer_1" xmlns="http://www.w3.org/2000/svg" xmlns:xlink="http://www.w3.org/1999/xlink" x="0px" y="0px"
	 viewBox="0 0 400 344.9" style="enable-background:new 0 0 400 344.9;" xml:space="preserve">
<style type="text/css">
	.st0{fill:#192A2E;}
</style>
<path class="st0" d="M400,344.4v-87.8c-0.1-0.1-0.2-0.1-0.3-0.2c0,0,0,0,0,0c0.1-0.4,0.2-0.6,0.3-0.8v-0.1c0,0.1,0,0.1,0,0v-0.4
	l-0.1-0.1c-0.5-0.3-1-0.7-1.7-1c-0.4-0.2-0.9-0.3-1.4-0.3c0-0.3,0.1-0.7,0.1-1c0-1.7-0.4-3.1-1-3.1c-0.3,0-0.5,0.3-0.7,0.9
	c-0.3-0.9-0.7-1.5-1.1-1.4c-0.5,0.1-0.7,1.2-0.6,2.6c0,0-0.1,0-0.1,0c-0.1-1.5-0.5-2.6-1-2.6c-0.6,0-1,1.4-1,3.1
	c0,0.2,0,0.3,0.1,0.4c0,0.1,0,0.2-0.1,0.2c-0.1,0-0.3-0.1-0.5-0.2c0.2,0.1,0.2,0,0,0c-0.1-0.1-0.3-0.1-0.4-0.2c0-0.1,0-0.2,0-0.3
	c0.3-1.3,0.3-2.7-0.2-2.8c-0.4-0.1-1.1,0.6-1.5,1.7c-0.1-1.4-0.6-2.5-1.2-2.5c-0.4,0-0.7,0.6-0.8,1.6c-0.1-0.8-0.4-1.3-0.7-1.3
	c-0.2,0-0.4,0.2-0.6,0.5c-0.4-0.9-0.8-1.6-1.2-1.5c-0.5,0-0.7,1-0.5,2.3c-0.2,0.1-0.4,0.2-0.5,0.5c-0.1,0-0.1,0,0,0c0,0,0,0,0,0
	c-0.2-0.1-0.3-0.1-0.4-0.1c-0.1-1.7,0.2-3-0.3-3.2c-0.2-0.1-0.6,0.2-1,0.9c-0.1,0-0.1-0.1-0.2-0.1c-0.4,0-0.6,0.7-0.8,1.7
	c-0.2,0-0.3-0.1-0.2-0.1l0,0l0,0l0,0l-0.2,0.2l0,0.1c0,0-0.1,0-0.3,0c0,0,0,0,0,0c0.2-0.6,0.4-1.1,0.1-1.4c-0.1-0.1-0.5-0.1-0.8,0.1
	c0,0,0-0.1,0-0.1c-0.2-0.2-0.9,0.1-1.4,0.8c-0.1-1.2-0.5-2.1-1-2.1c-0.5,0-0.9,0.9-1,2c-0.1-0.1-0.1-0.1-0.2-0.2
	c-0.1-0.1-0.2-0.1-0.2-0.1c0.1-0.6,0.2-1-0.1-1.2c-0.3-0.3-1.4,0.4-2,1.7c-0.4-0.7-1-1-1.3-0.9c-0.2,0.1-0.3,0.3-0.3,0.7
	c-0.2-0.3-0.4-0.4-0.6-0.4c-0.1,0-0.2,0.1-0.4,0.2c-0.4-0.7-1-1-1.3-1c-0.1-0.3-0.2-0.4-0.4-0.5c-0.3-0.1-0.9,0.4-1.2,1.2
	c-0.1,0-0.2,0.1-0.3,0.1c-0.1-1.1,0-1.8-0.2-2.1c-0.1-0.1-0.3-0.1-0.6,0.1c-0.2-1-0.6-1.7-0.9-1.7c-0.4,0-0.7,1.3-0.8,3
	c-0.6-0.1-1.1-0.1-0.4,0l0,0l0,0l0,0l0,0.1l-0.1,0.2l-0.1,0.3c0,0,0,0.1-0.1,0.1c-0.3-1.1-0.7-1.8-1.2-1.8c-0.3,0-0.5,0.3-0.6,0.8
	c-0.1-1-0.2-1.8-0.6-1.9c-0.3-0.1-0.8,0.5-1.1,1.4c-0.1-0.2-0.3-0.3-0.4-0.3c-0.3,0-0.6,0.5-0.8,1.2c-0.1-0.2-0.2-0.3-0.4-0.4
	c-0.3-0.1-0.9,0.4-1.2,1.3c0,0,0,0,0,0c0.1-1.2,0.1-2.2-0.3-2.3c-0.1-0.2-0.1-0.4-0.3-0.5c-0.3-0.3-1.6,1-1.5,2.9
	c-0.1,0-0.2,0.1-0.4,0.2c0,0,0,0,0,0c0-0.1,0-0.1,0-0.2c0.1-0.8,0.2-1.3-0.1-1.6c-0.1-0.1-0.3-0.1-0.5,0c-0.1-0.2-0.3-0.3-0.4-0.3
	c-0.3,0-0.6,0.6-0.8,1.5c-0.1,0.2-0.2,0.4-0.3,0.6l-0.2,0l-0.1-0.3l0,0l0,0c0.9-0.1,0.2,0-0.6,0c0-1,0-1.7-0.4-1.9
	c-0.4-0.2-1.4,0.9-1.6,2.6l-0.1,0l-0.3,0c-0.1-0.3,0-0.3,0,0l-0.2,0c0,0,0,0,0,0c0.4-1.8,0.3-3.3-0.3-3.5c-0.4-0.1-1,0.8-1.4,2.2
	c-0.1-0.7-0.3-1.1-0.6-1.2c-0.4,0-0.8,0.6-1.1,1.7c0,0-0.1-0.1-0.1-0.1c-0.1-0.1-0.4-0.1-0.8,0.2c-0.3-0.6-0.7-1-1-1
	c-0.3,0-0.5,0.4-0.6,1c-0.3,0.2-0.5,0.6-0.8,1c0,0,0-0.1,0-0.1c0,0,0,0,0,0c-0.2-1.5-0.6-2.5-1-2.4c-0.3,0-0.5,0.6-0.7,1.5l-0.5-1.3
	l-0.3-0.8l-0.1-0.4l0-0.1l0,0l0,0c0.7,0,0.4,0-0.1,0c-0.1-0.7-0.3-1.1-0.6-1.2c-0.3-0.1-0.8,0.5-1,1.3c-0.2,0-0.3,0-0.2,0l0,0.1
	l0,0.2l0,0c-0.4,0-0.6,0,0,0l-0.1,1.3c0,0-0.1-0.1-0.1-0.1c-0.1,0-0.1,0-0.2,0c0,0,0-0.1,0-0.1c0.1-2.5,0.7-4.6,0.2-4.8
	c-0.3-0.2-1.3,0.9-1.8,2.6c-0.3-0.2-1.3,0.9-1.7,2.6c0,0,0,0,0,0c-0.3-0.1-1,0.8-1.4,2.2c-0.5,0.3-1.1,1.2-1.3,2.5
	c0,0.2,0,0.3,0,0.5c0,0-0.1,0-0.2,0l0-0.1l0,0c0.2,0-0.5,0-1.1-0.1c0-1.2,0-2-0.5-2.2c-0.4-0.2-1.1,0.7-1.4,2
	c-0.1-0.9-0.5-1.5-1-1.5c-0.6,0-1,0.9-1,2.1c0,0,0,0,0,0c-0.2-1-0.6-1.7-1.1-1.6c-0.4,0.1-0.7,0.7-0.8,1.5c-0.7-0.1-1.1-0.1-1.2-0.1
	c0,0,0,0-0.1-0.1c-0.1,0-0.1,0-0.2,0c-0.2-0.3-0.5-0.5-0.7-0.5c-0.4,0.1-0.7,0.8-0.8,1.7c-0.8,0-1.5,0-0.6,0l0,0l0,0.1l0,0.5
	c0,0.3-0.1,0.6-0.1,0.9c0,0-0.1,0-0.1,0c0-0.1,0-0.1,0-0.2c-0.1-0.3-0.1-0.5-0.1-0.8l0-0.4l0-0.2c0,0,0,0,0,0v0l0-0.1v0
	c0.7,0,0.4,0-0.1,0c0.1-1.6,0-2.9-0.5-3c-0.3-0.1-0.8,0.7-1.2,1.8c0,0,0,0,0,0c-0.4-0.1-1,0.8-1.5,2.1c0,0,0-0.1,0-0.1l0-0.7l0-0.4
	l0-0.1l0,0v0c0.1,0,0.2,0,0,0l0,0c-0.3,0-0.5-0.1-0.7-0.1c-0.1-0.1-0.2-0.2-0.3-0.2c-0.1,0-0.3,0-0.4,0.1c-0.9-0.1,0.4,0-0.2,0v0
	l0,0v0l0,0.1l0,0.1l0,0c-0.4,0.4-0.7,1.2-0.9,2.2c0,0.2,0,0.4,0,0.5c0,0-0.1,0-0.1,0c0-1.3-0.4-2.3-1-2.3c-0.4,0-0.8,0.6-1,1.4
	c-0.1,0-0.1,0-0.2,0c-0.3-0.5-0.6-0.8-1-0.7c-0.1,0-0.2,0.1-0.3,0.2c0,0,0-0.1,0-0.1c0,0-0.1,0-0.1,0c-0.2-0.5-0.5-0.9-0.8-0.9
	c-0.4,0-0.7,0.5-0.9,1.3c0-0.9-0.3-1.5-0.6-1.6c-0.4-0.1-0.9,0.6-1.2,1.5c-0.1-1.3-0.2-2.2-0.6-2.3c-0.2-0.1-0.6,0.4-0.9,1.1
	c-0.1,0-0.1,0-0.2,0c0.2-1.4,0.3-2.6-0.1-2.7c-0.4-0.1-1.5,1.1-2,3.2c-0.6-0.1-1-0.2-0.3-0.1l0,0l0,0l0,0.1l-0.1,0.2l-0.2,0.3
	c-0.1,0.2-0.2,0.4-0.2,0.6l0,0l0,0l0,0c0,0.1,0,0.1,0,0.2c-0.1,0-0.1,0-0.2,0.1c0,0,0,0,0,0c0-1.1-0.4-2-0.9-2c-0.5,0-0.9,0.7-1,1.6
	c-0.1,0-0.2,0-0.2,0c0.1-0.6,0.1-1.3,0.2-2l0-0.2c0,0,0,0,0,0l0,0l0-0.1l0,0l0,0c0.8,0.1,0.3,0-0.5-0.1c-0.1-0.5-0.3-0.9-0.5-1
	c-0.3-0.1-0.7,0.3-1.1,1c-0.3,0-0.4,0,0,0c-0.1,0.2-0.2,0.5-0.3,0.8c-0.2-0.3-0.4-0.6-0.7-0.6c-0.3,0-0.6,0.3-0.8,0.7
	c-0.2,0-0.4,0-0.6,0c0,0,0,0,0,0c0.1-0.7,0.1-1.5-0.4-1.7c-0.3-0.2-0.9,0.1-1.3,0.8c-0.2-0.7-0.5-1.1-0.8-1.1c-0.5,0-1,1.2-1,2.7
	c-0.1-0.5-0.2-0.8-0.5-0.9c-0.2-0.1-0.5,0.1-0.8,0.5c-0.2-0.9-0.6-1.5-1-1.5c-0.2,0-0.3,0.1-0.5,0.4c-0.2,0-0.4,0-0.5,0
	c0.1-0.9,0.1-1.5-0.2-1.7c-0.1,0-0.1,0-0.2,0c-0.1-1.3-0.4-2.1-0.7-2.1c-0.4,0-0.9,1.6-1.1,3.9c-0.7-0.2-1.1-0.3-0.4-0.1l0,0l0,0.1
	l-0.1,0.4c-0.4,1-0.5,2.1-0.3,3.2c0,0.3,0.2,0.6,0.2,0.9l0.2,0.4l0,0.1c-0.2,0-0.3,0-0.5,0c-0.1-0.5-0.5-0.9-1-0.9
	c-0.3,0-0.5,0.2-0.7,0.4c-0.1,0-0.2,0-0.4,0c0.2-1.2,0.4-2.3-0.1-2.5c-0.3-0.1-1,0.3-1.5,1.2c0.2-1.2,0.1-2.1-0.3-2.2
	c-0.4-0.1-0.9,0.4-1.3,1.4c-0.1-0.5-0.2-0.8-0.5-0.8c-0.1,0-0.2,0-0.3,0.1c-0.1-1.1-0.5-1.9-0.9-1.9c-0.2,0-0.5,0.3-0.7,0.7
	c-0.2-0.6-0.5-1-0.8-1c-0.2,0-0.4,0.2-0.5,0.6c0,0,0,0,0,0c-0.1-0.3-0.2-0.5-0.4-0.6c0,0-0.1,0-0.1,0c-0.1-0.7-0.2-1.2-0.5-1.3
	c-0.3,0-0.7,0.5-1,1.4c0,0,0,0,0,0c-0.1,0.3-0.2,0.7-0.3,1.1h-0.2c0-0.2-0.1-0.4-0.1-0.6c-0.5-2.5-0.7-4.6-1.3-4.7
	c-0.5-0.1-1.2,2.2-0.6,5c0,0.1,0.1,0.2,0.1,0.3c-0.1-0.1-0.2-0.2-0.4-0.2c-0.4,0-0.7,0.9-0.7,2.1c-0.2-0.5-0.5-0.8-0.8-0.8
	c-0.3,0-0.5,0.2-0.7,0.6c-0.2-0.2-0.3-0.3-0.5-0.3c0,0-0.1,0-0.1,0c0,0,0,0,0,0c-0.3-2.4,0.1-4.4-0.5-4.6c-0.2-0.1-0.7,0.4-1.1,1.4
	c-0.2-2.8-0.8-5-1.3-5c-0.6,0-0.9,2.5-0.7,5.5c0,0.1,0,0.3,0,0.4c-0.5,0-0.8,0.1-0.1,0v0l0,0.1c0,0,0,0,0,0l0,0
	c-0.8-0.1-1.6-0.1-0.7,0l0,0l0,0l0,0.1c0,0,0,0,0,0l0,0l0,0.2l0,0.4c0,0.5-0.1,1-0.1,1.5c0,0-0.1,0-0.1,0l-0.1,0.2
	c-0.1,0.2-0.2,0.3-0.2,0.5c0,0-0.1,0-0.1,0c0-0.1-0.1-0.2-0.1-0.4l0-0.2c0,0,0,0,0,0l0,0c0,0,0,0-0.1,0c0,0,0.5,0-0.2-0.1
	c-0.1-0.5-0.4-1-0.8-1.1c-0.2-0.1-0.5,0.1-0.7,0.3c-0.1-0.4-0.2-0.7-0.5-0.8c-0.4-0.1-1,0.5-1.4,1.5c0,0,0,0,0,0c0-0.1,0-0.2,0-0.3
	c0-1.6-0.4-3-1-3c-0.3,0-0.6,0.5-0.8,1.2c-0.2-0.4-0.4-0.7-0.7-0.7c-0.2,0-0.5,0.2-0.6,0.6c-0.2-0.2-0.3-0.4-0.6-0.4
	c-0.3,0-0.5,0.2-0.7,0.6c0,0,0,0-0.1,0c-0.1-0.1-0.1-0.2-0.2-0.2l0-0.1c0.1,0,0.3,0.1,0,0l0-0.1l0,0l0,0c-0.1,0-0.2,0-0.3-0.1
	c-0.1-0.1-0.2-0.1-0.3-0.1c0,0-0.1,0-0.1,0c0,0,0,0,0,0c0-1-0.1-1.7-0.5-1.8c-0.1,0-0.1,0-0.2,0c-0.1-0.3-0.2-0.5-0.4-0.5
	c-0.4-0.1-0.8,0.8-1.1,2.1c-0.6-0.1-1-0.1-0.9-0.1l-0.2,0.4l0,0.1c-0.1,0-0.1,0-0.2,0c0.2-1.7,0.1-2.8-0.3-2.9
	c-0.5-0.2-1.6,1.9-1.9,4.5c0,0.2,0,0.3-0.1,0.5c-0.4,0.1-0.9,0.2-1.3,0.4c-0.8-0.1-0.8,0.2-0.8,0.5c-0.3,0.2-0.5,0.4-0.8,0.6
	c0,0,0,0,0,0c-0.3,0.1-0.5,0.2-0.8,0.3c0,0,0,0,0,0c0,0,0,0,0,0l0.1-0.7l0-0.2c-0.5-0.2,1.2,0.2-1.2-0.4l-0.1,0.1l0,0
	c-0.1,0-0.1,0,0,0l-0.2,0.3c-0.2,0.3-0.3,0.6-0.5,0.9c0,0,0-0.1-0.1-0.1l0,0l0-0.2l0-0.1l0,0c-0.6-0.2,1.4,0.5-1.4-0.5l0,0.1
	l-0.1,0.1c-0.2-0.1-0.1,0,0,0l-0.7,1.1c-0.3-0.4-0.4-0.5,0,0l-0.1,0.2c-0.2,0-0.7-0.1-1.7-0.3l0,0l0,0c-0.3-0.1-0.1,0,0,0v0
	c0,0,0,0,0,0l-0.1,0.1l-0.1,0.2l-0.2,0.4c-0.7-0.2-1.8-0.5-1.6-0.4l0,0.1c-0.4-0.1-0.6-0.2,0,0l0,0l0,0l-0.1,0.2l-0.3,0.5
	c0,0,0,0.1-0.1,0.1c-0.3,0-0.5,0-0.7,0c-0.7,0-1.3,0-0.5,0l0,0l0,0l0,0.1l-0.1,0.5c-0.1,0.2-0.2,0.5-0.3,0.7
	c-0.3-0.1-0.6-0.1-0.8-0.2c0-0.8-0.2-1.4-0.7-1.5c-0.2,0-0.4,0.1-0.6,0.3c-0.3-0.1-0.8,0.2-1.2,0.7c-0.3-0.5-0.6-0.8-0.9-0.7
	c-0.3,0-0.5,0.3-0.6,0.7c0-0.4-0.1-0.7-0.3-0.7c-0.3-0.1-0.9,0.3-1.3,1.2c0-0.1-0.1-0.1-0.2-0.1c-0.3-0.1-1,0.8-1.5,2.1
	c-0.2,0-0.3,0-0.6,0l0,0l0,0.1c0,0,0,0,0,0c-0.1,0-0.2,0-0.3,0c-0.1-1.8-0.5-3.2-0.9-3.2c-0.4,0-0.8,1.2-1,2.9c-0.3-0.1-0.4-0.1,0,0
	c0,0.2,0,0.3,0,0.5l-0.2,0.7l-0.1,0.3c-1.2,0-1,0-0.8,0v0h0l0,0.1l0,0.1l-0.1,0.5c0,0.3,0,0.5-0.1,0.8c-0.1,0-0.1,0-0.2,0
	c-0.4,0-0.8-0.1-0.6-0.1l0,0l0,0l0,0.1c-0.4,0-0.5,0,0,0l0,0c-0.2,0-0.4,0.1-0.6,0.1c-0.1,0-0.2-0.1-0.3-0.1
	c-0.1-0.3-0.3-0.6-0.5-0.7c0.1-0.1,0-0.1-0.6-0.1c-0.1-0.7-0.3-1.1-0.6-1.2c-0.5-0.2-1.2,1.2-1.5,2.9c0,0,0,0.1,0,0.1
	c-0.4,0.1-0.8,0.3-1.1,0.5c0-2-0.1-3.7-0.6-3.8c-0.5-0.1-1.3,1.6-1.4,3.7c0,0.1-0.1,0.2-0.1,0.3c-0.2,0.1-0.4,0.1-0.6,0.2
	c0-0.1,0-0.2,0.1-0.3l0.1-0.9l0-0.3c0.5,0,0.3,0,0,0l0-0.1l0,0c0.1,0-0.4-0.1-0.9-0.1c-0.1-0.8-0.4-1.3-0.7-1.3c0,0-0.1,0-0.1,0
	c-0.1-0.4-0.3-0.7-0.5-0.8c-0.5-0.1-1.2,1-1.5,2.5c-0.1-0.1-0.2-0.1-0.3-0.1c-0.1,0-0.2,0-0.2,0c-0.1,0-0.1,0-0.2,0
	c0-0.3,0.1-0.6,0-1c0.3-1.1,0-2.2-0.5-2.3c-0.3-0.1-0.6,0.1-0.8,0.6c0,0,0,0-0.1,0c-0.3-0.1-0.9,0.7-1.4,2c-0.1-1.4-0.2-2.3-0.7-2.5
	c-0.3-0.1-0.6,0.3-0.9,1c-0.1-3.3,0-5.8-0.6-5.9c-0.4-0.1-1.1,1.8-1.3,4.4c-0.1,0.2-0.2,0.5-0.3,0.9c-0.1,0.1-0.2,0.2-0.4,0.4
	c-0.6,0-0.8,0.1-0.1,0l0,0l0,0c0,0,0,0,0,0.1c-0.4,0.6-0.8,1.5-1.1,2.6c-0.4,0.3-0.7,1-0.9,2c-0.1-1-0.4-1.6-0.8-1.6
	c-0.2,0-0.4,0.3-0.6,0.7c0,0,0,0,0,0c-0.1-0.4-0.3-0.7-0.6-0.7c0,0,0,0,0,0c-0.1-0.1-0.2-0.2-0.3-0.3c-0.5-0.1-1.3,1.1-1.4,2.9
	c0,0.1-0.1,0.2-0.1,0.2c-0.5-0.1-1.1-0.1-1.6-0.2l0,0c0.2,0-0.3,0-0.8,0c-0.2,0-0.5,0-0.7,0l0.1-0.1l0,0c0.1,0-0.2,0-0.7,0
	c-0.2-0.4-0.4-0.7-0.7-0.7c-0.2,0-0.5,0.2-0.6,0.5c0,0,0,0,0,0c-0.1-0.2-0.3-0.3-0.4-0.4c-0.1-0.3-0.2-0.5-0.4-0.6
	c-0.2-0.1-0.4,0-0.6,0.1c-0.2-1.1-0.5-1.9-0.9-1.9c-0.2,0-0.5,0.3-0.7,0.8c-0.2-0.3-0.4-0.5-0.5-0.5c-0.3,0-0.5,0.4-0.7,1.1
	c-0.2-0.1-0.4-0.1-0.5-0.1c0,0,0-0.1,0-0.1l0.1-0.6l0.1-0.3l0-0.1l0,0c-0.7,0,1.3,0-0.9,0l0-0.3l0-0.2l0-0.1
	c0.7,0.1,0.3,0.1-0.3-0.1c0.1-1.2,0-2-0.3-2.1c-0.5-0.1-1.5,1.9-2,4.4c0,0.2-0.1,0.5-0.1,0.7c-0.1,0-0.2,0-0.3,0.1l0,0
	c-0.7,0,1.6,0-1.6,0l0,0.1l0,0c-0.5,0-1,0.1-1.5,0.2c-0.1-0.2-0.1-0.3-0.1-0.2l0,0l0,0l0,0l-0.1,0l-0.1,0c-0.2-0.4-0.2-0.6,0,0
	l-0.1,0l-0.1,0c-0.1,0-0.2,0.1-0.3,0.1c-2.3-0.5-0.5-0.1-1.1-0.2l0,0l0,0.1l-0.1,0.3l0,0c-0.2,0-0.4-0.1-0.6-0.1
	c0.2-0.1,0.6-0.2-1.1-0.2l0,0.2c-0.7,0-1.3-0.1-2,0c-0.5,0-1,0.1-1.4,0.1c0,0-0.1,0-0.1,0l0,0l0-0.1l0-0.1l0,0
	c-0.6-0.1,1.2,0.2-0.9-0.2l-0.1-0.2l0-0.1l0,0l0,0c0.2,0-0.8,0-1.5-0.1c-0.3-0.6-0.8-1-1.1-0.9c-0.1,0-0.3,0.2-0.3,0.4
	c-0.1-0.6-0.3-1.1-0.5-1.1c-0.3-0.1-0.7,0.5-1,1.4c0,0-0.1,0-0.2-0.1c-0.1-0.9-0.5-1.5-0.9-1.6c-0.4-0.1-0.8,0.6-1,1.6
	c-0.4-0.1-0.9-0.1-1.1-0.2c-0.1-0.2-0.3-0.6-0.7-0.5c-0.1-0.1-0.3-0.2-0.5-0.2c-0.4,0-0.8,0.4-0.9,1c-0.1,0-0.2,0-0.3,0
	c-0.3,0-0.6,0-0.9,0l-0.1-0.1l0-0.1l0,0l0,0c1.1-0.2-0.3,0-1.2,0.2l-0.1-0.7l0-0.2c1.2,0-0.3,0-1.3,0l-0.2-0.5l-0.1-0.1c0,0,0,0,0,0
	c0.6-0.1,0.4,0,0,0c-0.1-0.6-0.2-1-0.6-1.1c-0.3-0.1-0.8,0.2-1.1,0.9c-0.2,0-0.4,0-0.6,0c-1.2,0-1,0-0.8,0l0,0l0,0.1
	c-0.1,0.4-0.1,0.7-0.2,1.1c-0.1,0-0.2,0-0.3,0c-0.3,0-0.6,0-1,0v0c-0.3,0-0.1,0,0,0l0,0l0,0.1c0,0-0.1,0-0.1,0l0,0l0,0l0,0
	c0.1,0-0.1,0-0.3,0.1c-1-0.1-2-0.2-3-0.3c-0.1-0.1-0.2-0.1-0.3-0.2c-0.8,0-1.2,0.1-1.5,0.1c-0.2,0-0.4,0-0.6,0l-0.1-0.3l0-0.1l0,0
	c0.7,0,0.5,0,0,0c0.2,0-0.3,0-0.9,0c-0.6,0-1.2,0-1.2,0c-0.5,0-0.7,0,0,0v0l0,0l0,0l0,0.1l0,0.1c-0.1-0.1-0.1-0.1-0.2-0.2l0,0l0,0
	l0,0c0.2,0-0.5,0.1-1.2,0.2c-0.2,0-0.5,0-0.7,0c0-0.1,0-0.2-0.1-0.3c0-0.3-0.2-0.7-0.4-0.9c0,0,0,0,0-0.1c0,0-0.1,0-0.1,0
	c-0.2-0.1-0.4-0.2-0.6-0.2c-0.2,0-0.4,0.1-0.5,0.2c0,0,0,0-0.1,0c0,0,0,0,0,0c-0.2,0-0.2,0.1-0.1,0.2c-0.1,0.2-0.2,0.5-0.2,0.8
	c-0.2-0.4-0.4-0.6-0.7-0.7c0,0,0-0.1,0-0.1c-0.2,0-0.4,0-0.6,0c-0.1-0.1-0.1-0.1-0.2-0.2c-0.1-0.3-0.3-0.5-0.6-0.5
	c-0.3-0.1-0.7,0.4-0.9,1.1c-0.3-0.1-0.5-0.1-0.7-0.1c0.3-1.5,0.2-2.7-0.3-2.8c-0.4-0.1-0.9,0.5-1.3,1.5c0-1.3-0.1-2.2-0.5-2.3
	c-0.4-0.1-1,0.9-1.3,2.5c-0.3,0-0.6-0.1-0.8-0.1c0,0,0,0,0,0c0.1-1.8,0-3.2-0.5-3.4c-0.4-0.1-0.9,0.7-1.2,1.8c-1.6-0.2,0.2,0-0.5,0
	l0,0l0,0l0,0.1l0,0c0,0,0,0,0,0v0l0,0l0,0.1l0,0.4c0,0.1,0,0.2,0,0.3c-0.1,0-0.1,0-0.2-0.1c0,0,0-0.1,0-0.1c0.1-1-0.2-1.8-0.7-1.8
	c-0.3-1.6-1.1-2.7-1.5-2.6c-0.6,0.2-0.4,1.7-0.4,3.6c0,0.1,0,0.1,0,0.2c-0.1,0-0.1,0-0.2,0c0-0.1,0-0.1,0-0.2
	c0.1-1.3-0.1-2.4-0.7-2.5c-0.4-0.1-0.8,0.4-1,1.1c-0.3-0.9-0.7-1.4-1-1.4c-0.3,0.1-0.6,0.5-0.7,1.1c-0.2,0.1-0.4,0.3-0.5,0.6
	c-0.1-0.1-0.2-0.1-0.3-0.1c-0.3,0-0.6,0.3-0.8,0.7c-0.2-0.4-0.5-0.7-0.7-0.7c-0.3,0-0.5,0.2-0.7,0.6c-0.2-0.2-0.3-0.3-0.5-0.3
	c-0.5,0-0.9,0.6-1,1.4c-0.1,0-0.1,0-0.2,0l0,0c0.1,0,0,0-0.1,0c-0.4-0.4-0.8-0.5-1.1-0.4c-0.1,0.1-0.2,0.2-0.3,0.4
	c-0.3,0-0.4,0-0.5,0c-0.1,0-0.1,0-0.1,0c0-0.7-0.2-1.3-0.6-1.4c-0.5-0.2-1.1,0.7-1.4,1.9c-0.1,0-0.4,0-0.9,0
	c-0.7-0.2-1.3-0.3-1.9-0.5c-0.2-0.3-0.3-0.6-0.4-0.8c-0.1,0.1-0.3,0.2-0.4,0.2c-0.1-0.1-0.2-0.1-0.4-0.2c0,0.1,0,0.3,0.1,0.4
	c-0.1,0-0.1,0.1-0.2,0.1c-0.1,0-0.2,0-0.3-0.1c0,0,0,0,0,0c0,0,0,0,0,0c-0.3-0.4-0.4-1-0.3-1.6l0.1-0.6c0,0,0,0,0,0l0-0.1
	c0.2,0,0.4-0.1-0.7-0.3c0,0,0,0,0,0c0.1-1-0.1-1.8-0.6-1.9c-0.1,0-0.3,0-0.4,0.1l-0.1-0.4l0-0.2l0,0c1.2,0.1-0.7-0.1-1.4-0.1
	c-0.2-0.1-0.3-0.2-0.5-0.3c-0.1-0.3-0.2-0.7-0.3-1l0-0.1c0.6,0,0.5,0,0,0l0-0.1l0,0l0,0c0.2,0-0.4,0-1,0.1c0-1.4-0.2-2.4-0.6-2.5
	c-0.3-0.1-0.7,0.5-1,1.5l0-0.4l0-0.3l0-0.1l0,0h0l0,0c0.2,0,0.5,0-0.9,0c-0.3,0-0.5,0-0.7,0c-0.1-0.7-0.3-1.1-0.6-1.2
	c-0.4-0.1-0.9,0.8-1.1,2c-0.4,0-0.5,0,0,0c-0.1,0.3-0.1,0.7-0.1,1c0,0.1,0,0.3,0,0.4c0,0.1,0,0.1,0,0.2c0,0.1,0,0.3,0,0.4
	c-0.6,0-1.1,0-1.4,0c0,0,0-0.1,0-0.1c0.1,0,0.2,0.1,0.2,0c0.1-0.1-0.1-0.4-0.4-1c0,0,0-0.1,0-0.1c0-0.1,0-0.2,0.1-0.2
	c0,0-0.1,0-0.1-0.1c0-0.1,0.1-0.2,0.1-0.3l0-0.3l0-0.1c-0.1,0-0.2,0-0.3,0.1c0,0,0-0.1,0-0.1c0-0.1-0.1-0.2-0.1-0.3c0.2,0,0.1,0,0,0
	c0,0,0-0.1,0-0.1c0-0.1,0-0.2,0-0.2l0-0.4c-0.1,0-0.2,0-0.3-0.1c-0.1-0.1-0.1-0.1-0.2-0.2c-0.1,0-0.2,0-0.2,0.1
	c-0.1-0.9-0.3-1.7-0.5-2.3c0.1,0,0.1,0,0-0.1c-0.2-0.7-0.5-1.1-0.7-1.1c-0.2,0-0.4,0.5-0.5,1.2c-0.1-0.3-0.2-0.4-0.4-0.5
	c-0.2,0-0.4,0.2-0.7,0.6c-0.3-0.1-0.5-0.1-0.7-0.2c0-0.5,0.1-0.9,0.1-1.4l0.1-1.2c0,0,0,0,0,0l0,0l0-0.1c-0.3,0-0.5-0.1-0.7-0.1
	c-0.3-0.1-0.5-0.1-0.6-0.1c-0.2,0-0.2,0-0.1,0c-0.4,0.1,0.1,0.6-0.2,0.7l0.1-1l0-0.7c0.5,0.1,0.3,0,0,0l0,0l0-0.2c0.1,0,0,0-0.1,0
	c-0.1-1.4-0.4-2.4-0.8-2.4c-0.5,0-1,1.4-1.1,3.3c-0.2,0-0.4,0-0.6,0c-0.2-0.7-0.4-1.2-0.6-1.1c-0.5,0-0.9,1.3-1.1,3.2
	c-0.1,0-0.2,0-0.3-0.1c0-0.2,0-0.5,0.1-0.8l0.4-1.6l0.1-0.4l0.1-0.2l0-0.1c0,0,0,0,0,0l0,0c1.1,0.2-0.3-0.1-1.2-0.2l0,0l0.1-0.4
	c0.6,0.1,0.5,0.1,0,0l0-0.1c0.1,0-0.1,0-0.3-0.1c-0.1-2-0.4-3.6-0.9-3.6c-0.5,0-0.9,1.4-1,3.2c0,0,0,0,0,0c0,0.3,0,0.6,0,0.9
	c0,0,0,0,0,0.1c-0.6-0.1-1.1-0.3-0.9-0.2l0,0l0,0c-0.5-0.1-0.7-0.2,0,0l0,0l0,0.1l-0.1,0.4c-0.1,0.2-0.2,0.4-0.3,0.6
	c-0.1-0.1-0.2-0.1-0.3-0.2c0,0,0,0,0,0c0.1-1,0.2-1.8,0.2-2.5c0,0,0,0,0,0c0-0.7-0.1-1.1-0.4-1.2c-0.2-0.1-0.6,0.3-1,0.9
	c-0.1,0-0.3,0-0.4,0l0-0.1c-0.1,0-0.3-0.1-0.4-0.1c-0.1-1-0.3-1.6-0.6-1.7c-0.1,0-0.3,0.1-0.5,0.4c0-1.7,0.1-3-0.4-3.2
	c-0.3-0.1-0.8,0.5-1.2,1.4c-0.3-0.6-0.6-1-0.9-0.9c0,0-0.1,0-0.1,0c-0.1-0.4-0.2-0.7-0.5-0.8c-0.4-0.1-0.8,0.3-1.2,1.1
	c0-0.2,0.1-0.5,0.1-0.8c0-1.7-0.4-3.1-1-3.1c-0.1,0-0.2,0.1-0.3,0.2c0-1.1-0.2-1.9-0.6-2c-0.3,0-0.5,0.3-0.8,0.9
	c0-1-0.1-1.6-0.4-1.7c-0.5-0.1-1.4,2-2,4.6c0,0.1,0,0.1,0,0.2c0-0.3,0-0.5,0.1-0.8c0.5-2.7,0.5-5-0.1-5.1c-0.1,0-0.2,0-0.3,0.1
	c0.1-2.6-0.2-4.5-0.6-4.5c-0.6,0-1,3.2-1.7,7.1c-0.1,0.5-0.2,1-0.2,1.4c-0.1-0.5-0.2-0.9-0.4-1.1c0-0.7-0.1-1.2-0.3-1.2
	c-0.5-0.1-1.5,1.8-2.2,4.3c-0.1,0.2-0.1,0.5-0.2,0.7c-0.1-0.4-0.3-0.6-0.5-0.6c0,0-0.1,0-0.2,0c-0.1-0.9-0.4-1.5-0.7-1.6
	c-0.2,0-0.3,0.1-0.5,0.3c0-0.6-0.1-1-0.4-1.1c-0.5-0.1-1.4,1.5-1.9,3.7c0,0-0.1-0.1-0.1-0.1c-0.3-0.1-0.7,0.2-1,0.8
	c-0.1,0-0.3,0-0.4-0.1l-0.1,0.2c0,0,0,0,0,0l-0.1,0.3c0.1-1.7-0.3-3.1-0.8-3.1c-0.6,0-1.1,1.4-1.2,3.1c0,0,0,0.1,0,0.1
	c-0.4-0.1-0.7-0.1-0.9-0.2c0-0.1,0-0.2,0-0.3l0-0.1l0,0c1,0.2,0.1,0-0.8-0.2c-0.1-0.1-0.2-0.2-0.4-0.2c-0.1,0-0.1,0-0.2,0.1
	c0,0-0.1,0-0.1,0c0-0.2,0-0.3-0.1-0.5l0-0.1l0-0.1l0,0c0.8,0,0.4,0-0.2,0H56c-0.1-0.1-0.1-0.1-0.2-0.2c0,0-0.1-0.1-0.1-0.1
	c-0.4-0.2,0.2-0.6-0.5-0.8c0-1,0-1.8-0.4-1.9c-0.3-0.1-0.8,0.6-1.2,1.7c-1.3-0.6-0.5,0.3-1,0.2c-0.1,0.2-0.3,0.4-0.5,0.6
	c0-0.2,0-0.4,0.1-0.4l0-0.4c-0.5-0.3,1.2,0.3-1.1-0.7l-0.2,0.2c0,0,0,0-0.1,0.1c0,0,0-0.1,0-0.1l0-0.5l0-0.3l0-0.1l0-0.1l0,0
	c0.6,0,0.3,0-0.1,0c0.1-1.3,0.2-2.3-0.2-2.5c-0.3-0.2-1.2,0.9-1.6,2.5c-0.7-0.3-1.7-0.6-0.8-0.3l0,0l0,0l0,0c0,0,0,0,0,0l0,0.1
	c0,0.1-0.1,0.1-0.1,0.2c-0.2-0.2-0.5-0.4-0.7-0.6c0-0.3,0.1-0.6,0.1-0.9l0.1-0.7l0.1-0.3l0-0.2l0,0l0,0c0,0,0,0,0,0l0,0
	c0.2,0,0.3,0,0,0l0,0l0-0.1c-0.3,0-0.5,0-0.8,0c-1.4-2.6-0.4-0.7-0.8-1.3l-0.1,0c-0.1,0-0.2,0.1-0.4,0.1c-0.1-1.9-0.3-3.1-0.7-3.1
	c-0.4,0-0.7,1.1-1,2.7c-0.3-0.1-0.7-0.2-1.2-0.3l0,0c-0.3-0.1-0.2,0,0,0l0,0c0,0,0,0,0,0l0,0l0,0l-0.2,0.6l-0.2,1
	c-0.9,0-1.7,0.1-0.7,0l0,0.1l-0.1,0.4l-0.1,0.8l-0.2,0.9l0,0c0,0,0,0,0,0l0,0l0,0c-3.9-0.7-1.1-0.2-2-0.3l0,0c0,0,0,0,0,0
	c0,0,0,0,0,0l0,0l0,0.1l0,0c-0.1,0-0.1,0-0.2,0c0.1,0,0,0-0.2,0c-0.1-0.2-0.2-0.3-0.4-0.3c-0.2,0-0.4,0.1-0.5,0.3c-0.5,0-1,0-0.8,0
	l0,0c-0.5,0-0.7,0,0,0l0,0l0,0.1l0,0.1l0,0.3c0,0,0,0,0,0c-0.2,0-0.4-0.1-0.6-0.1c-0.2-0.3-0.4-0.5-0.7-0.5c-0.2,0-0.4,0.1-0.5,0.3
	c-0.1,0-0.1,0,0,0c-0.1,0.1-0.2,0.3-0.3,0.6c0,0,0,0-0.1,0c-0.1,0-0.4-0.1-0.7-0.1c0,0-0.1,0-0.1,0c-0.1,0-0.2,0-0.3,0
	c-0.2,0-0.3,0-0.4-0.1c-0.5-0.1-0.9-0.1-0.2,0l0,0l0,0.2l-0.1,0.6l0,0.2c-0.1,0.2-0.2,0.3-0.3,0.5c0-0.1,0-0.1,0-0.2
	c0.3-1.1,0-2.2-0.5-2.4c-0.5-0.2-1.1,0.6-1.4,1.8c-0.3,0.1-0.5,0.1-0.7,0.1c0,0-0.1,0-0.1,0l0,0c0,0-0.1,0-0.1,0
	c-0.2-0.1-0.6-0.2-1.1-0.3c0.1-1.4,0.3-2.4-0.2-2.6c-0.4-0.2-1.7,1.1-1.8,3.1c0-0.3,0-0.7,0-1.1c-0.4-0.2-0.6-0.2-0.7-0.2
	c-0.1-0.2-0.3-0.4-0.5-0.6c0-0.3,0-0.6,0-0.9c-0.3,0-0.5,0-0.7,0l0-0.3l0-0.2h0l0,0c-0.7,0-1.1,0-1.3,0c-0.1,0-0.3,0-0.4,0l0-0.1
	c0.2,0.4-0.2-1.8-1.3-0.8c-0.1,0-0.2-0.1-0.3-0.1c0.1-0.7,0.2-1.4,0.2-2.2l0-0.6l0-0.2l0,0c1,0,0.1,0-0.8,0c-0.2,0-0.5,0-0.7,0
	c0-0.8,0.3-1.5,0.4-2.3l0-0.1l0-0.1l0,0l0,0c-0.7-0.2,1.1,0.2-0.6-0.2c0.1-1.8-0.5-3.1-0.9-3c-0.5,0.2-0.7,1.8-1.2,4.1
	c-0.2,0.9-0.2,1.7-0.1,2.4c-0.3,1.1-0.9,1.8-1.5,2.4c0-0.3,0-0.2-0.1,0c-0.1,0.1-0.3,0.2-0.4,0.3c-2.2,0,1.1,0-0.4,0v0l0,0l-0.1,0.1
	l-0.1,0.1l-0.1,0.2c-0.6,0-1.1,0.1-1,0.1l0,0l0.1,0.2l0.1,0.1c-0.2,0.1-0.3,0.1-0.5,0.2c-0.3-0.1-0.7-0.1-1.3-0.3c0-0.3,0-0.6,0-0.9
	c0-0.3,0-0.5-0.1-0.7c0.3,0,0.2,0,0,0c-0.1-1.1-0.5-1.9-1-1.9c-0.4,0-0.7,0.7-0.9,1.6c-0.1,0-0.2,0-0.1,0l0,0l0,0.1l0,0
	c-0.6-0.7-0.9-0.5-1.1-0.2c-0.2-0.5-0.4-1-0.2-0.4c-0.1,0-0.2,0-0.3,0.1c0-0.1,0-0.1,0-0.1c0,0,0-0.1,0-0.1c0.6-2-0.1-3.8-0.6-3.7
	c-0.4,0.1-0.7,0.8-0.9,1.8c-0.1,0-0.1,0-0.2,0c0,0-0.1,0-0.1,0c0-1.1,0.1-1.8,0-1.8c-0.1,0-0.3,0.6-0.5,1.7
	c-0.5-1.1-1.3-1.7-1.6-1.5c-0.5,0.3-0.2,1.3-0.1,2.7c-0.3-0.1-0.6-0.1-0.8-0.1c0.1-0.3,0.1-0.6,0.1-1c0-1.3-0.4-2.3-1-2.3
	c-0.6,0-1,1-1,2.3c0,0.6,0.1,1.1,0.2,1.5c-0.2-0.1-0.4-0.1-0.6-0.2l0-0.5l0-0.3l0-0.1v-0.1c-0.7-0.1,1.2,0.1-0.7-0.1c0,0,0,0,0-0.1
	l-0.1-1.1l0-0.1l0-0.1l0,0C0.1,230,2.1,230.3,0,230v114.4H400z"/>
</svg>
