<?xml version="1.0" encoding="utf-8"?>
<!-- Generator: Adobe Illustrator 21.1.0, SVG Export Plug-In . SVG Version: 6.00 Build 0)  -->
<svg version="1.1" id="Layer_1" xmlns="http://www.w3.org/2000/svg" xmlns:xlink="http://www.w3.org/1999/xlink" x="0px" y="0px"
	 viewBox="0 0 400 344.9" style="enable-background:new 0 0 400 344.9;" xml:space="preserve">
<style type="text/css">
	.st0{fill:#C6D9D3;}
</style>
<path class="st0" d="M376,88.3c-1-0.6-2.1-1.1-3-1.8c-0.8-0.4,0-0.7-2.1-1.2l-1.5,0.9c-2.1,1-4.6,0-6.6-1.6c-2.1-1.5-4-3.6-6.7-5
	c-1.3-0.7-3.1-1.1-4.7-0.5c-0.6,0.1-1,0.5-1.5,0.8c-0.2-0.4-0.6-0.8-0.5-1c-0.6-1.4-1.4-2.7-2-4.1c-0.3-0.7-0.6-1.4-0.8-2.1
	l-0.3-1.1l-0.1-0.3c-0.6-0.1,1.4,0.1-1.4-0.2v0.1l-0.1,0.1l-0.3,0.5c-0.7,1.3-1.8,2.5-2.6,4c-0.3,0.4-0.4,0.8-0.6,1.2l-0.1-0.1
	c-0.9-1.4-1.8-2.8-2.8-4.2l-1.4-2l-0.2-0.3l-0.1-0.1c-2.8,0-0.8,0.1-1.5,0.1l-0.3,0.5c-0.2,0.3-0.4,0.6-0.7,0.9
	c-2.1,2.5-5.1,4.3-7.3,7.4c-2.1,3.2-2.5,7-3.9,10.1c-1.3,3.1-4.3,5.5-7,7.8c-2.9,2.2-6.1,4.4-9.6,5.3c-0.8,0.2-1.7,0.3-2.3,0.1
	c-3,0.9-1.6,1.8-2.7,2.7c-0.9,1.8-1.6,3.7-2.3,5.5l-0.9,2.7l-0.7-0.4c-1.7-1-3.5-1.9-5.1-3c-3.4-2.1-6.7-4.5-9.9-7.1
	c-6.4-5.1-12.4-11.1-17.2-18.1l-0.2-0.3l-0.1-0.1c1.3,0.2-1.8-0.3-1.5-0.2l-0.2,0.1l-0.6,0.6l-1.2,1.1l-2.3,2.3
	c-1.5,1.5-3.1,3.1-4.7,4.5c-3.2,2.9-6.7,5.2-11,6c-2.1,0.5-4.4,0.9-6.6,1.7c-1.1,0.3-2.2,0.9-3.2,1.4l-1.1,0.7l0,0
	c-0.3-0.5-0.5-0.9-0.6-1.2c0.2,0,0.1,0,0,0l0,0l-0.1-0.6c0.4,0.1-3.5-1.1-1.9-0.6l-0.1,0.1l-0.1,0.2l-0.2,0.4c-0.6,1-1.2,2-1.7,3
	c-1,2.1-1.8,4.3-2.5,6.5l-0.5,1.7l-0.1,0.3c-0.9-0.2-1.7-0.4-2.5-0.8c-2-0.8-3.8-1.9-5.4-3.4c-5.4-0.9-8.6-1.1-12.5-3.7
	c-0.9-0.5-1.8-1.1-2.6-1.8c-0.4-0.3-0.7-0.7-1.1-1c-1.9-1.2-1.4-0.4-2.2-0.7c-2-0.1-3.8-1.2-5.6-2.3c-0.9-0.6-1.7-1.3-2.6-1.9
	l-0.2-0.1c1.2-0.1-1.7,0-1.4,0.1l-0.1,0.1l-0.3,0.3l-0.6,0.6l-1.2,1.1c-1.5,1.5-3.1,3-4.7,4.2c-3.2,2.6-7.1,4.5-11,5.2
	c-4,0.6-8.3,0.1-12.6,1.5c-1.1,0.2-2,1-3,1.5l-1.2,1.1c-1.4-1.5-3.2-2.6-5.1-3.3c-4.1-1.4-8.2-1.3-12-1.8
	c-7.5-0.8-14.1-6.1-21.6-7.5c-3.6-1.2-7.5-1.5-10.4-3.1c-2.9-1.3-6.5-4.7-10.5-3c-9.4,11.6-23.1,12.9-34.5,16.1
	c-22.7,7.6-40.9,14-53.9,17.2c-2.2,0.6-4.1,1.1-6,1.5v216.2h400V96.2c-0.3-0.1-0.6-0.2-0.9-0.4C393,93,384.6,91.8,376,88.3z"/>
</svg>
